<svg id="Layer_1" data-name="Layer 1" xmlns="http://www.w3.org/2000/svg" viewBox="0 0 426.16 70.55"><defs><style>.cls-1,.cls-3{fill:#f15c61;}.cls-2{fill:#231f20;}.cls-3{font-size:53.08px;font-family:AirbnbCerealWBd, AirbnbCereal_W_Bd;}.cls-4{letter-spacing:-0.02em;}.cls-5{letter-spacing:0em;}.cls-6{letter-spacing:0em;}</style></defs><path class="cls-1" d="M110,408.62c-3-2.73-3.07-7.05-3.21-9.47-.4-6.83-2.46-16.65-10-29.36-4.57-13.58-5.19-24.44-.92-26.86,3.54-2,10.73,1.64,14.36,6.69s2.3,9.45,4.46,24.34c.66,4.51,1.37,8.2,1.88,10.68l1.62,9.89h.18c.37-2.31.94-5.81,1.73-10,1-5.41,1.93-9.1,2.12-10.7q1.33-11.16,2.68-22.31c-.12-6.92,5.44-11.42,9.75-10.74,3.31.53,6.35,4.18,6.74,8.89l4.73,24.86c1.31,6.92,2.27,13.22,3.15,19.79h.17c.34-2.29.88-5.8,1.58-10.08,3.13-19.13,5-25.54,8-31.75,4.82-9.82,8.61-10.9,10.24-11.13a8.28,8.28,0,0,1,6.1,1.62c4.6,3.69,4.16,14-1.39,25.42-9.43,13.15-12.54,23.33-13.57,30.38-.34,2.31-.86,7-4.42,9.89-4.16,3.33-11.51,3.37-14.45,0-1.59-1.83-1.34-4.05-1.41-7.17a55.49,55.49,0,0,0-3.58-18.21q-.84-4.23-1.56-8.81c-.47-3-.89-6-1.24-9.4h-.17c-1.41.23-1.58,6.12-1.58,9.37l-1.84,8.84a74,74,0,0,0-3.33,15.12c-.64,5.68-.24,8.15-2.27,10.26C121.26,412.09,113.77,412.06,110,408.62Z" transform="translate(-93 -340.67)"/><path class="cls-2" d="M238,173" transform="translate(-93 -340.67)"/><path class="cls-1" d="M98,30" transform="translate(-93 -340.67)"/><text class="cls-3" transform="translate(89.86 55.33)"><tspan class="cls-4">w</tspan><tspan class="cls-5" x="43.58" y="0">anderl</tspan><tspan class="cls-6" x="204.4" y="0">o</tspan><tspan x="237.79" y="0">dge</tspan></text></svg>